<svg width="31" height="33" viewBox="0 0 31 33" fill="none" xmlns="http://www.w3.org/2000/svg">
<path d="M17.3753 1.8351C17.3753 1.3484 17.1777 0.881634 16.8261 0.537487C16.4744 0.19334 15.9975 0 15.5003 0C15.003 0 14.5261 0.19334 14.1744 0.537487C13.8228 0.881634 13.6253 1.3484 13.6253 1.8351L13.6196 16.5214C13.6196 17.0081 13.8172 17.4748 14.1688 17.819C14.5204 18.1631 14.9973 18.3565 15.4946 18.3565C15.9919 18.3565 16.4688 18.1631 16.8205 17.819C17.1721 17.4748 17.3696 17.0081 17.3696 16.5214L17.3753 1.8351Z" fill="#F1824D"/>
<path d="M0.5 18.3196C0.5 14.2641 2.17812 10.5939 4.89313 7.93848L7.54437 10.5333C5.97096 12.0731 4.89943 14.035 4.46528 16.1709C4.03114 18.3068 4.25388 20.5206 5.10535 22.5326C5.95681 24.5446 7.39875 26.2642 9.24882 27.4741C11.0989 28.684 13.274 29.3298 15.4991 29.3298C17.7241 29.3298 19.8992 28.684 21.7493 27.4741C23.5994 26.2642 25.0413 24.5446 25.8928 22.5326C26.7442 20.5206 26.967 18.3068 26.5328 16.1709C26.0987 14.035 25.0272 12.0731 23.4538 10.5333L26.1069 7.93848C27.8511 9.64564 29.1382 11.7474 29.8542 14.0577C30.5702 16.368 30.693 18.8155 30.2117 21.1833C29.7305 23.5511 28.66 25.7663 27.0951 27.6325C25.5303 29.4987 23.5193 30.9584 21.2403 31.8823C18.9614 32.8062 16.4848 33.1658 14.0299 32.9292C11.5751 32.6926 9.21774 31.8671 7.16671 30.5259C5.11567 29.1846 3.43425 27.369 2.27138 25.2399C1.10852 23.1108 0.50009 20.7338 0.5 18.3196Z" fill="#F1824D"/>
</svg>
