<svg width="86" height="77" viewBox="0 0 86 77" fill="none" xmlns="http://www.w3.org/2000/svg">
<rect width="85.5556" height="77" rx="20" fill="#FEF1DE"/>
<path d="M56.7916 36.4611L30.3058 20.1198C30.0982 19.9917 29.865 19.9403 29.6344 19.972C29.4037 20.0036 29.1853 20.1168 29.0056 20.2981C28.8339 20.4756 28.7058 20.7086 28.6356 20.9711C28.5655 21.2335 28.556 21.5149 28.6083 21.7836L32.1719 37.7833L28.5602 53.7383C28.5111 53.9627 28.5053 54.1982 28.5434 54.4259C28.5815 54.6535 28.6624 54.8669 28.7795 55.049C28.8966 55.231 29.0466 55.3767 29.2176 55.4741C29.3886 55.5716 29.5758 55.6182 29.7641 55.6102C29.9525 55.6088 30.1381 55.5528 30.3058 55.4467L56.7916 39.1054C56.9888 38.9808 57.1543 38.7914 57.2699 38.5581C57.3854 38.3248 57.4466 38.0567 57.4466 37.7833C57.4466 37.5098 57.3854 37.2417 57.2699 37.0085C57.1543 36.7752 56.9888 36.5858 56.7916 36.4611ZM31.6301 51.3168L34.2907 39.2688H45.4148V36.2977H34.2907L31.6301 24.2497L53.5531 37.7833L31.6301 51.3168Z" fill="#F1824D"/>
</svg>
