<svg width="35" height="32" viewBox="0 0 35 32" fill="none" xmlns="http://www.w3.org/2000/svg">
<path d="M12.8607 3.62492C12.8727 3.64482 12.8847 3.66468 12.8968 3.6845L12.6719 4.17718C12.6788 4.14648 12.6856 4.11573 12.6923 4.08492L12.8101 3.54104L12.8607 3.62492ZM11.9737 17.9583C11.6682 17.9583 11.4892 17.8752 11.3416 17.7425C11.2011 17.6162 11.171 17.5267 11.171 17.3883C11.171 17.2498 11.2011 17.1604 11.3416 17.0341C11.4892 16.9014 11.6682 16.8182 11.9737 16.8182C12.2792 16.8182 12.4581 16.9014 12.6057 17.0341C12.7463 17.1604 12.7763 17.2498 12.7763 17.3883C12.7763 17.5267 12.7463 17.6162 12.6057 17.7425C12.4581 17.8752 12.2792 17.9583 11.9737 17.9583ZM23.0263 17.9583C22.7208 17.9583 22.5419 17.8752 22.3943 17.7425C22.2537 17.6162 22.2237 17.5268 22.2237 17.3883C22.2237 17.2498 22.2537 17.1604 22.3943 17.0341C22.5419 16.9014 22.7208 16.8182 23.0263 16.8182C23.3318 16.8182 23.5108 16.9014 23.6584 17.0341C23.7989 17.1604 23.829 17.2498 23.829 17.3883C23.829 17.5267 23.7989 17.6162 23.6584 17.7425C23.5108 17.8752 23.3318 17.9583 23.0263 17.9583Z" fill="#F1824D" stroke="#F1824D" stroke-width="3"/>
</svg>
