<svg width="86" height="77" viewBox="0 0 86 77" fill="none" xmlns="http://www.w3.org/2000/svg">
<rect width="85.5556" height="77" rx="20" fill="#FEF1DE"/>
<path d="M50.5 23.375V26.5H56.125C56.6223 26.5 57.0992 26.6975 57.4508 27.0492C57.8025 27.4008 58 27.8777 58 28.375C58 28.8723 57.8025 29.3492 57.4508 29.7008C57.0992 30.0525 56.6223 30.25 56.125 30.25H29.875C29.3777 30.25 28.9008 30.0525 28.5492 29.7008C28.1975 29.3492 28 28.8723 28 28.375C28 27.8777 28.1975 27.4008 28.5492 27.0492C28.9008 26.6975 29.3777 26.5 29.875 26.5H35.5V23.375C35.5 20.96 37.46 19 39.875 19H46.125C48.54 19 50.5 20.96 50.5 23.375ZM34.24 35.6875L35.89 52.1875C35.9055 52.3418 35.9778 52.4848 36.0928 52.5887C36.2079 52.6927 36.3575 52.7502 36.5125 52.75H49.4875C49.6425 52.7502 49.7921 52.6927 49.9072 52.5887C50.0222 52.4848 50.0945 52.3418 50.11 52.1875L51.76 35.6875C51.822 35.2032 52.0705 34.7622 52.4526 34.4582C52.8347 34.1542 53.3203 34.0113 53.8061 34.0598C54.292 34.1084 54.7398 34.3445 55.0542 34.718C55.3687 35.0915 55.525 35.573 55.49 36.06L53.84 52.56C53.7321 53.6395 53.227 54.6404 52.4228 55.3685C51.6185 56.0965 50.5724 56.4998 49.4875 56.5H36.5125C35.428 56.4999 34.3822 56.0969 33.578 55.3694C32.7738 54.6419 32.2684 53.6415 32.16 52.5625L30.51 36.0625C30.4787 35.8143 30.4974 35.5622 30.565 35.3213C30.6326 35.0804 30.7477 34.8555 30.9036 34.6598C31.0595 34.464 31.253 34.3015 31.4726 34.1817C31.6923 34.0619 31.9337 33.9873 32.1827 33.9623C32.4317 33.9372 32.6831 33.9623 32.9222 34.036C33.1614 34.1096 33.3833 34.2304 33.5751 34.3912C33.7668 34.552 33.9244 34.7495 34.0386 34.9721C34.1528 35.1947 34.2213 35.438 34.24 35.6875ZM39.25 23.375V26.5H46.75V23.375C46.75 23.2092 46.6842 23.0503 46.5669 22.9331C46.4497 22.8158 46.2908 22.75 46.125 22.75H39.875C39.7092 22.75 39.5503 22.8158 39.4331 22.9331C39.3158 23.0503 39.25 23.2092 39.25 23.375Z" fill="#FF9A62"/>
</svg>
