<svg width="1223" height="651" viewBox="0 0 1223 651" fill="none" xmlns="http://www.w3.org/2000/svg">
<rect x="1" y="1" width="355.274" height="198.611" fill="#EAEAEA"/>
<line y1="-0.451389" x2="407.021" y2="-0.451389" transform="matrix(0.872864 -0.487963 0.416057 0.909339 1 199.611)" stroke="white" stroke-width="0.902778"/>
<line y1="-0.451389" x2="407.021" y2="-0.451389" transform="matrix(-0.872864 -0.487963 -0.416057 0.909339 356.274 199.611)" stroke="white" stroke-width="0.902778"/>
<rect x="433.863" y="226.694" width="355.274" height="198.611" fill="#EAEAEA"/>
<line y1="-0.451389" x2="407.021" y2="-0.451389" transform="matrix(0.872864 -0.487963 0.416057 0.909339 433.863 425.306)" stroke="white" stroke-width="0.902778"/>
<line y1="-0.451389" x2="407.021" y2="-0.451389" transform="matrix(-0.872864 -0.487963 -0.416057 0.909339 789.136 425.306)" stroke="white" stroke-width="0.902778"/>
<rect x="1" y="452.389" width="355.274" height="198.611" fill="#EAEAEA"/>
<line y1="-0.451389" x2="407.021" y2="-0.451389" transform="matrix(0.872864 -0.487963 0.416057 0.909339 1 651)" stroke="white" stroke-width="0.902778"/>
<line y1="-0.451389" x2="407.021" y2="-0.451389" transform="matrix(-0.872864 -0.487963 -0.416057 0.909339 356.274 651)" stroke="white" stroke-width="0.902778"/>
<rect x="866.726" y="1" width="355.274" height="198.611" fill="#EAEAEA"/>
<line y1="-0.451389" x2="407.021" y2="-0.451389" transform="matrix(0.872864 -0.487963 0.416057 0.909339 866.726 199.611)" stroke="white" stroke-width="0.902778"/>
<line y1="-0.451389" x2="407.021" y2="-0.451389" transform="matrix(-0.872864 -0.487963 -0.416057 0.909339 1222 199.611)" stroke="white" stroke-width="0.902778"/>
<rect x="866.726" y="226.694" width="355.274" height="198.611" fill="#EAEAEA"/>
<line y1="-0.451389" x2="407.021" y2="-0.451389" transform="matrix(0.872864 -0.487963 0.416057 0.909339 866.726 425.306)" stroke="white" stroke-width="0.902778"/>
<line y1="-0.451389" x2="407.021" y2="-0.451389" transform="matrix(-0.872864 -0.487963 -0.416057 0.909339 1222 425.306)" stroke="white" stroke-width="0.902778"/>
<rect x="866.726" y="452.389" width="355.274" height="198.611" fill="#EAEAEA"/>
<line y1="-0.451389" x2="407.021" y2="-0.451389" transform="matrix(0.872864 -0.487963 0.416057 0.909339 866.726 651)" stroke="white" stroke-width="0.902778"/>
<line y1="-0.451389" x2="407.021" y2="-0.451389" transform="matrix(-0.872864 -0.487963 -0.416057 0.909339 1222 651)" stroke="white" stroke-width="0.902778"/>
<rect x="433.863" y="1" width="355.274" height="198.611" fill="#EAEAEA"/>
<line y1="-0.451389" x2="407.021" y2="-0.451389" transform="matrix(0.872864 -0.487963 0.416057 0.909339 433.863 199.611)" stroke="white" stroke-width="0.902778"/>
<line y1="-0.451389" x2="407.021" y2="-0.451389" transform="matrix(-0.872864 -0.487963 -0.416057 0.909339 789.136 199.611)" stroke="white" stroke-width="0.902778"/>
<rect x="1" y="226.694" width="355.274" height="198.611" fill="#EAEAEA"/>
<line y1="-0.451389" x2="407.021" y2="-0.451389" transform="matrix(0.872864 -0.487963 0.416057 0.909339 1 425.306)" stroke="white" stroke-width="0.902778"/>
<line y1="-0.451389" x2="407.021" y2="-0.451389" transform="matrix(-0.872864 -0.487963 -0.416057 0.909339 356.274 425.306)" stroke="white" stroke-width="0.902778"/>
<rect x="433.862" y="452.389" width="355.274" height="198.611" fill="#EAEAEA"/>
<line y1="-0.451389" x2="407.021" y2="-0.451389" transform="matrix(0.872864 -0.487963 0.416057 0.909339 433.862 651)" stroke="white" stroke-width="0.902778"/>
<line y1="-0.451389" x2="407.021" y2="-0.451389" transform="matrix(-0.872864 -0.487963 -0.416057 0.909339 789.136 651)" stroke="white" stroke-width="0.902778"/>
</svg>
