<svg width="44" height="44" viewBox="0 0 44 44" fill="none" xmlns="http://www.w3.org/2000/svg">
<path d="M28.4167 25.6667H26.9683L26.455 25.1717C28.3138 23.0157 29.3354 20.2633 29.3333 17.4167C29.3333 15.0598 28.6344 12.7558 27.325 10.7961C26.0156 8.83644 24.1545 7.30905 21.977 6.40711C19.7995 5.50516 17.4035 5.26917 15.0918 5.72898C12.7802 6.18879 10.6569 7.32374 8.99032 8.99032C7.32374 10.6569 6.18879 12.7802 5.72898 15.0918C5.26917 17.4035 5.50516 19.7995 6.40711 21.977C7.30905 24.1545 8.83644 26.0156 10.7961 27.325C12.7558 28.6344 15.0598 29.3333 17.4167 29.3333C20.3683 29.3333 23.0817 28.2517 25.1717 26.455L25.6667 26.9683V28.4167L34.8333 37.565L37.565 34.8333L28.4167 25.6667ZM17.4167 25.6667C12.8517 25.6667 9.16667 21.9817 9.16667 17.4167C9.16667 12.8517 12.8517 9.16667 17.4167 9.16667C21.9817 9.16667 25.6667 12.8517 25.6667 17.4167C25.6667 21.9817 21.9817 25.6667 17.4167 25.6667Z" fill="#F1824D"/>
</svg>
