<svg width="39" height="40" viewBox="0 0 39 40" fill="none" xmlns="http://www.w3.org/2000/svg">
<mask id="path-1-inside-1_2037_233" fill="white">
<path d="M5.25 8.75V28.75C5.25 29.413 5.50022 30.0489 5.94562 30.5178C6.39102 30.9866 6.99511 31.25 7.625 31.25H31.375C32.0049 31.25 32.609 30.9866 33.0544 30.5178C33.4998 30.0489 33.75 29.413 33.75 28.75V8.75H5.25ZM5.25 6.25H33.75C34.3799 6.25 34.984 6.51339 35.4294 6.98223C35.8748 7.45107 36.125 8.08696 36.125 8.75V28.75C36.125 30.0761 35.6246 31.3479 34.7338 32.2855C33.843 33.2232 32.6348 33.75 31.375 33.75H7.625C6.36522 33.75 5.15704 33.2232 4.26624 32.2855C3.37545 31.3479 2.875 30.0761 2.875 28.75V8.75C2.875 8.08696 3.12522 7.45107 3.57062 6.98223C4.01602 6.51339 4.62011 6.25 5.25 6.25Z"/>
</mask>
<path d="M5.25 8.75V28.75C5.25 29.413 5.50022 30.0489 5.94562 30.5178C6.39102 30.9866 6.99511 31.25 7.625 31.25H31.375C32.0049 31.25 32.609 30.9866 33.0544 30.5178C33.4998 30.0489 33.75 29.413 33.75 28.75V8.75H5.25ZM5.25 6.25H33.75C34.3799 6.25 34.984 6.51339 35.4294 6.98223C35.8748 7.45107 36.125 8.08696 36.125 8.75V28.75C36.125 30.0761 35.6246 31.3479 34.7338 32.2855C33.843 33.2232 32.6348 33.75 31.375 33.75H7.625C6.36522 33.75 5.15704 33.2232 4.26624 32.2855C3.37545 31.3479 2.875 30.0761 2.875 28.75V8.75C2.875 8.08696 3.12522 7.45107 3.57062 6.98223C4.01602 6.51339 4.62011 6.25 5.25 6.25Z" fill="#F1824D"/>
<path d="M5.25 8.75V-1.25H-4.75V8.75H5.25ZM5.25 28.75H-4.75H5.25ZM33.75 8.75H43.75V-1.25H33.75V8.75ZM5.25 6.25V-3.75V6.25ZM33.75 6.25V-3.75V6.25ZM2.875 28.75H-7.125H2.875ZM-4.75 8.75V28.75H15.25V8.75H-4.75ZM-4.75 28.75C-4.75 31.9044 -3.56436 35.0263 -1.30437 37.4053L13.1956 23.6303C14.5648 25.0715 15.25 26.9217 15.25 28.75H-4.75ZM-1.30437 37.4053C0.972167 39.8016 4.17261 41.25 7.625 41.25V21.25C9.81761 21.25 11.8099 22.1716 13.1956 23.6303L-1.30437 37.4053ZM7.625 41.25H31.375V21.25H7.625V41.25ZM31.375 41.25C34.8274 41.25 38.0278 39.8016 40.3044 37.4053L25.8044 23.6303C27.1901 22.1716 29.1824 21.25 31.375 21.25V41.25ZM40.3044 37.4053C42.5644 35.0263 43.75 31.9044 43.75 28.75H23.75C23.75 26.9217 24.4352 25.0715 25.8044 23.6303L40.3044 37.4053ZM43.75 28.75V8.75H23.75V28.75H43.75ZM33.75 -1.25H5.25V18.75H33.75V-1.25ZM5.25 16.25H33.75V-3.75H5.25V16.25ZM33.75 16.25C31.5574 16.25 29.5651 15.3284 28.1794 13.8697L42.6794 0.094738C40.4028 -2.30162 37.2024 -3.75 33.75 -3.75V16.25ZM28.1794 13.8697C26.8102 12.4285 26.125 10.5784 26.125 8.75H46.125C46.125 5.59556 44.9393 2.47366 42.6794 0.094738L28.1794 13.8697ZM26.125 8.75V28.75H46.125V8.75H26.125ZM26.125 28.75C26.125 27.5847 26.56 26.3704 27.4838 25.398L41.9838 39.173C44.6891 36.3253 46.125 32.5675 46.125 28.75H26.125ZM27.4838 25.398C28.4241 24.4082 29.8123 23.75 31.375 23.75V43.75C35.4573 43.75 39.2618 42.0382 41.9838 39.173L27.4838 25.398ZM31.375 23.75H7.625V43.75H31.375V23.75ZM7.625 23.75C9.18772 23.75 10.5759 24.4082 11.5162 25.398L-2.98375 39.173C-0.261813 42.0382 3.54272 43.75 7.625 43.75V23.75ZM11.5162 25.398C12.44 26.3704 12.875 27.5847 12.875 28.75H-7.125C-7.125 32.5675 -5.68914 36.3253 -2.98375 39.173L11.5162 25.398ZM12.875 28.75V8.75H-7.125V28.75H12.875ZM12.875 8.75C12.875 10.5783 12.1898 12.4285 10.8206 13.8697L-3.67937 0.094738C-5.93936 2.47368 -7.125 5.59558 -7.125 8.75H12.875ZM10.8206 13.8697C9.43487 15.3284 7.44261 16.25 5.25 16.25V-3.75C1.79762 -3.75 -1.40283 -2.30162 -3.67937 0.094738L10.8206 13.8697Z" fill="#F1824D" mask="url(#path-1-inside-1_2037_233)"/>
<mask id="path-3-inside-2_2037_233" fill="white">
<path d="M34.0469 8.75L24.8628 19.8C24.194 20.6047 23.3695 21.2497 22.4446 21.6915C21.5197 22.1334 20.5157 22.362 19.5 22.362C18.4843 22.362 17.4803 22.1334 16.5554 21.6915C15.6305 21.2497 14.806 20.6047 14.1372 19.8L4.95312 8.75H34.0469ZM8.1095 8.75L15.9233 18.1525C16.3691 18.6891 16.9188 19.1192 17.5355 19.4139C18.1522 19.7085 18.8216 19.861 19.4988 19.861C20.1761 19.861 20.8455 19.7085 21.4622 19.4139C22.0788 19.1192 22.6285 18.6891 23.0744 18.1525L30.8905 8.75H8.1095Z"/>
</mask>
<path d="M34.0469 8.75L24.8628 19.8C24.194 20.6047 23.3695 21.2497 22.4446 21.6915C21.5197 22.1334 20.5157 22.362 19.5 22.362C18.4843 22.362 17.4803 22.1334 16.5554 21.6915C15.6305 21.2497 14.806 20.6047 14.1372 19.8L4.95312 8.75H34.0469ZM8.1095 8.75L15.9233 18.1525C16.3691 18.6891 16.9188 19.1192 17.5355 19.4139C18.1522 19.7085 18.8216 19.861 19.4988 19.861C20.1761 19.861 20.8455 19.7085 21.4622 19.4139C22.0788 19.1192 22.6285 18.6891 23.0744 18.1525L30.8905 8.75H8.1095Z" fill="#F1824D"/>
<path d="M34.0469 8.75L41.7374 15.1419L55.3614 -1.25H34.0469V8.75ZM24.8628 19.8L17.1723 13.4081L17.1718 13.4087L24.8628 19.8ZM19.5 22.362V32.362V22.362ZM14.1372 19.8L21.8282 13.4087L21.8277 13.4081L14.1372 19.8ZM4.95312 8.75V-1.25H-16.3614L-2.73737 15.1419L4.95312 8.75ZM8.1095 8.75V-1.25H-13.2031L0.418578 15.1414L8.1095 8.75ZM15.9233 18.1525L23.615 11.7621L23.6142 11.7611L15.9233 18.1525ZM19.4988 19.861V9.86097V19.861ZM23.0744 18.1525L15.3844 11.76L15.3826 11.7621L23.0744 18.1525ZM30.8905 8.75L38.5805 15.1425L52.2073 -1.25H30.8905V8.75ZM26.3564 2.35811L17.1723 13.4081L32.5532 26.1919L41.7374 15.1419L26.3564 2.35811ZM17.1718 13.4087C17.4067 13.126 17.7276 12.8625 18.1339 12.6683L26.7553 30.7147C29.0115 29.6368 30.9813 28.0834 32.5537 26.1913L17.1718 13.4087ZM18.1339 12.6683C18.5422 12.4733 19.0098 12.362 19.5 12.362V32.362C22.0216 32.362 24.4971 31.7935 26.7553 30.7147L18.1339 12.6683ZM19.5 12.362C19.9902 12.362 20.4578 12.4733 20.8661 12.6683L12.2447 30.7147C14.5029 31.7935 16.9784 32.362 19.5 32.362V12.362ZM20.8661 12.6683C21.2724 12.8625 21.5933 13.126 21.8282 13.4087L6.4463 26.1913C8.01868 28.0834 9.98851 29.6368 12.2447 30.7147L20.8661 12.6683ZM21.8277 13.4081L12.6436 2.3581L-2.73737 15.1419L6.44676 26.1919L21.8277 13.4081ZM4.95312 18.75H34.0469V-1.25H4.95312V18.75ZM0.418578 15.1414L8.23233 24.5439L23.6142 11.7611L15.8004 2.35862L0.418578 15.1414ZM8.23149 24.5429C9.58095 26.1671 11.2761 27.5059 13.2242 28.4368L21.8468 10.391C22.5615 10.7325 23.1572 11.2111 23.615 11.7621L8.23149 24.5429ZM13.2242 28.4368C15.1742 29.3685 17.3154 29.861 19.4988 29.861V9.86097C20.3277 9.86097 21.1301 10.0485 21.8468 10.391L13.2242 28.4368ZM19.4988 29.861C21.6822 29.861 23.8234 29.3685 25.7735 28.4368L17.1509 10.391C17.8676 10.0485 18.6699 9.86097 19.4988 9.86097V29.861ZM25.7735 28.4368C27.7215 27.5059 29.4167 26.1672 30.7661 24.5429L15.3826 11.7621C15.8404 11.2111 16.4361 10.7325 17.1509 10.391L25.7735 28.4368ZM30.7643 24.545L38.5805 15.1425L23.2005 2.35747L15.3844 11.76L30.7643 24.545ZM30.8905 -1.25H8.1095V18.75H30.8905V-1.25Z" fill="#F1824D" mask="url(#path-3-inside-2_2037_233)"/>
</svg>
