<svg width="31" height="30" viewBox="0 0 31 30" fill="none" xmlns="http://www.w3.org/2000/svg">
<path d="M27.9754 12.0734C27.9754 11.8332 27.9265 11.5953 27.8315 11.3734C27.7365 11.1514 27.5973 10.9498 27.4218 10.7799C27.2463 10.61 27.0379 10.4753 26.8085 10.3834C26.5792 10.2914 26.3334 10.2441 26.0852 10.2441C25.837 10.2441 25.5912 10.2914 25.3618 10.3834C25.1325 10.4753 24.9241 10.61 24.7486 10.7799C24.5731 10.9498 24.4339 11.1514 24.3389 11.3734C24.2439 11.5953 24.195 11.8332 24.195 12.0734H27.9754ZM6.80502 12.0734C6.80502 11.5882 6.60587 11.123 6.25139 10.7799C5.8969 10.4369 5.41612 10.2441 4.9148 10.2441C4.41349 10.2441 3.93271 10.4369 3.57822 10.7799C3.22374 11.123 3.02459 11.5882 3.02459 12.0734H6.80502ZM27.7728 16.2938C28.1273 16.6369 28.6082 16.8297 29.1095 16.8297C29.6109 16.8297 30.0918 16.6369 30.4463 16.2938C30.8008 15.9507 31 15.4854 31 15.0002C31 14.515 30.8008 14.0496 30.4463 13.7065L27.7728 16.2938ZM15.5 1.82959L16.8368 0.535945C16.6612 0.366032 16.4528 0.231248 16.2235 0.139289C15.9941 0.0473308 15.7483 0 15.5 0C15.2517 0 15.0059 0.0473308 14.7765 0.139289C14.5472 0.231248 14.3388 0.366032 14.1632 0.535945L15.5 1.82959ZM0.553704 13.7065C0.199173 14.0496 0 14.515 0 15.0002C0 15.4854 0.199173 15.9507 0.553704 16.2938C0.908234 16.6369 1.38908 16.8297 1.89046 16.8297C2.39184 16.8297 2.87269 16.6369 3.22722 16.2938L0.553704 13.7065ZM7.93915 30H23.0609V26.3415H7.93915V30ZM27.9754 25.244V12.0734H24.195V25.244H27.9754ZM6.80502 25.244V12.0734H3.02459V25.244H6.80502ZM30.4463 13.7065L16.8368 0.535945L14.1632 3.12323L27.7728 16.2938L30.4463 13.7065ZM14.1632 0.535945L0.553704 13.7065L3.22722 16.2938L16.8368 3.12323L14.1632 0.535945ZM23.0609 30C24.3643 30 25.6143 29.4989 26.536 28.607C27.4576 27.7151 27.9754 26.5053 27.9754 25.244H24.195C24.195 25.535 24.0755 25.8142 23.8628 26.02C23.6501 26.2259 23.3616 26.3415 23.0609 26.3415V30ZM7.93915 26.3415C7.63836 26.3415 7.34989 26.2259 7.1372 26.02C6.92451 25.8142 6.80502 25.535 6.80502 25.244H3.02459C3.02459 26.5053 3.54237 27.7151 4.46403 28.607C5.38569 29.4989 6.63573 30 7.93915 30V26.3415Z" fill="#F1824D"/>
</svg>
